# xmcd
#
# Track frame offsets:
#	150
#	20205
#	35735
#	54690
#	70880
#	82745
#	99790
#	115770
#	132110
#	147477
#	162847
#	178027
#	189555
#	207722
#	225460
#	243140
#
# Disc length: 3445
#
# Revision: 5
# Processed by: cddbd v1.5.1PL0 Copyright (c) Steve Scherf et al.
# Submitted via: Axialis_AX_CDPlayer 2.6
# Normalized: r2:DSETVAR1,TDELIM( - ),TSWAP
#
DISCID=db0d7310
DTITLE=Various Artist - Today's Most Requested Country Love Songs '90
DYEAR=1990
DGENRE=Country
TTITLE0=Rodney Crowell - After All This Time
TTITLE1=Highway 101 - Honky Tonk Heart
TTITLE2=Patty Loveless - Don't Toss Us Away
TTITLE3=Keith Whitley - I'm No Stranger To The Rain
TTITLE4=Holly Dunn - Are You Ever Gonna Love Me
TTITLE5=Earl Thomas Conley - Love Out Loud
TTITLE6=Steve Wariner - Where Did I Go Wrong
TTITLE7=Ricky Skaggs - Thanks Again
TTITLE8=Shenandoah - Mama Knows
TTITLE9=Murray McLauchlan - Love With A Capital "L"
TTITLE10=Tanya Tucker - Call On Me
TTITLE11=Ricky Van Shelton - Don't We All Have The Right
TTITLE12=Michelle Wright - I Wish I Were Only Lonely
TTITLE13=Restless Heart - Bluest Eyes In Texas
TTITLE14=Eddy Raven - 'Til You Cry
TTITLE15=Alabama - Feels So Right
EXTD=
EXTT0=
EXTT1=
EXTT2=
EXTT3=
EXTT4=
EXTT5=
EXTT6=
EXTT7=
EXTT8=
EXTT9=
EXTT10=
EXTT11=
EXTT12=
EXTT13=
EXTT14=
EXTT15=
PLAYORDER=
